/* XPM */
/* C:\Program Files\Picasa2\Picasa2.exe */
static char *icon[] = {
"48 48 240 2",
"  c None",
".  c #FAFAFA",
"+  c #FBF5F9",
"@  c #F3F3F3",
"#  c #EDEDED",
"$  c #F8EAEA",
"%  c #FBCDD1",
"&  c #FBB1B3",
"*  c #FEA6A9",
"=  c #FCE4E6",
"-  c #E6E6E6",
";  c #FCBEC2",
">  c #FE777E",
",  c #FE4C54",
"'  c #FE454D",
")  c #FE3E46",
"!  c #FE3940",
"~  c #FE686F",
"{  c #E1E2E1",
"]  c #FE575F",
"^  c #FE525A",
"/  c #FD9DA2",
"(  c #C79AE9",
"_  c #AB51E2",
":  c #DAACF5",
"<  c #FEFEFE",
"[  c #FCC2C2",
"}  c #FE6068",
"|  c #FE6F76",
"1  c #F6F2EA",
"2  c #EEE2F7",
"3  c #B356E6",
"4  c #FED2D2",
"5  c #F6EED6",
"6  c #FEBD3F",
"7  c #F2E6D6",
"8  c #E4C6F4",
"9  c #A64EE2",
"0  c #AC56E4",
"a  c #B75CE8",
"b  c #B862E8",
"c  c #FEDEDE",
"d  c #FEBB35",
"e  c #FEB42F",
"f  c #F6DCAC",
"g  c #D2AAEE",
"h  c #BC68E9",
"i  c #D6A2F2",
"j  c #FE8286",
"k  c #FE7983",
"l  c #FEC33C",
"m  c #FAD292",
"n  c #DABAF2",
"o  c #C26DEC",
"p  c #C372ED",
"q  c #D09AF0",
"r  c #F6EEFA",
"s  c #FEEEEE",
"t  c #FC949A",
"u  c #FEAD2A",
"v  c #D9D9D9",
"w  c #ECDAF8",
"x  c #A449E0",
"y  c #B25BE6",
"z  c #C477ED",
"A  c #D292F2",
"B  c #FE7E89",
"C  c #EEDECC",
"D  c #EEF2EE",
"E  c #CBCBCB",
"F  c #CA7AEE",
"G  c #C77EEE",
"H  c #CE8BEE",
"I  c #FEC546",
"J  c #F2EAE2",
"K  c #C28AEA",
"L  c #BD70EA",
"M  c #C983EE",
"N  c #FEA225",
"O  c #F8BC6C",
"P  c #CE86EE",
"Q  c #E2BAF6",
"R  c #FEB6BA",
"S  c #FE848D",
"T  c #F0E2D0",
"U  c #B670E6",
"V  c #AD5BE4",
"W  c #B162E6",
"X  c #FAB45A",
"Y  c #9C42DC",
"Z  c #BE76EA",
"`  c #EACEF6",
" . c #9D47DD",
".. c #CD93EE",
"+. c #FE9C1F",
"@. c #F6C280",
"#. c #B8B8B8",
"$. c #A14EDD",
"%. c #B468E6",
"&. c #D2D2D2",
"*. c #ECE6EE",
"=. c #953DDA",
"-. c #FEB537",
";. c #D8C2E8",
">. c #A553E1",
",. c #F2ECF6",
"'. c #FE941A",
"). c #F2D2AE",
"!. c #C9A3E5",
"~. c #BA86E6",
"{. c #A7A7A7",
"]. c #B27CE2",
"^. c #FEA43C",
"/. c #FE9D35",
"(. c #FAAE5A",
"_. c #AEAEAE",
":. c #AE72E2",
"<. c #8E34D8",
"[. c #BBD6EA",
"}. c #CADEEE",
"|. c #FE942E",
"1. c #FE8C27",
"2. c #FE8621",
"3. c #FE8B1D",
"4. c #8E3CD0",
"5. c #9242CA",
"6. c #B4D0E6",
"7. c #4E9EDE",
"8. c #FE7E1B",
"9. c #FE7817",
"0. c #FE7015",
"a. c #F6B266",
"b. c #BA8EDE",
"c. c #7C2CC0",
"d. c #8234C2",
"e. c #863AC6",
"f. c #A6CAE6",
"g. c #3E90D6",
"h. c #4296DA",
"i. c #FE821C",
"j. c #FE6912",
"k. c #F2AA76",
"l. c #C6AADE",
"m. c #CEAEE2",
"n. c #96BEDE",
"o. c #3686D2",
"p. c #3A8AD2",
"q. c #BAD2E8",
"r. c #EEB696",
"s. c #E2E6E4",
"t. c #DACEE6",
"u. c #7E32BE",
"v. c #D2BEE2",
"w. c #76AAD6",
"x. c #2C7CC8",
"y. c #3183CD",
"z. c #EACEBD",
"A. c #6A9ED2",
"B. c #226EBE",
"C. c #2474C4",
"D. c #E6EAEE",
"E. c #5692CA",
"F. c #1765BA",
"G. c #1C6CBF",
"H. c #FA8E4E",
"I. c #3A7ABE",
"J. c #115BB4",
"K. c #165DB5",
"L. c #B4CAE4",
"M. c #EED4C1",
"N. c #E6DED6",
"O. c #1256B2",
"P. c #0D54B1",
"Q. c #8AAAD2",
"R. c #084DAD",
"S. c #AEC4E0",
"T. c #AEE2B2",
"U. c #6CCD74",
"V. c #66C66E",
"W. c #61C167",
"X. c #59B95F",
"Y. c #54B25A",
"Z. c #51AC56",
"`. c #51A455",
" + c #A4CAA8",
".+ c #85D387",
"++ c #1EBA2A",
"@+ c #20B52B",
"#+ c #1AB125",
"$+ c #14AE20",
"%+ c #13AA1C",
"&+ c #0EA618",
"*+ c #0A9E12",
"=+ c #049E0D",
"-+ c #029407",
";+ c #028C06",
">+ c #028406",
",+ c #027E06",
"'+ c #128A16",
")+ c #B2C4E0",
"!+ c #0445AB",
"~+ c #AABEDE",
"{+ c #039A0A",
"]+ c #9C9C9C",
"^+ c #6E92CA",
"/+ c #82CE82",
"(+ c #0EAA19",
"_+ c #09A412",
":+ c #3668BA",
"<+ c #023EA7",
"[+ c #A7B7D9",
"}+ c #229626",
"|+ c #DEDEDE",
"1+ c #1A52B2",
"2+ c #7CCC7E",
"3+ c #1A961E",
"4+ c #DAE2DB",
"5+ c #0237A6",
"6+ c #A6B2D6",
"7+ c #2A9E2E",
"8+ c #939393",
"9+ c #5E82C2",
"0+ c #79C67A",
"a+ c #A0B2D8",
"b+ c #0C9210",
"c+ c #92CA96",
"d+ c #7ABE7A",
"e+ c #8AC88C",
"f+ c #1AA322",
"g+ c #1A9E1E",
"h+ c #BEBEBE",
"i+ c #D2E2D2",
"j+ c #9ED29E",
"k+ c #6ABE6E",
"l+ c #4AB250",
"m+ c #2EA834",
"n+ c #6ABA6E",
"o+ c #9ACE9E",
"p+ c #D2DED2",
"q+ c #C5C5C5",
"                                                                                                ",
"                                  . . . . . . . . . + @ #                                       ",
"                            . . . . . $ % & * * & % = @ + + @ -                                 ",
"                        . . . . ; > , , , , , ' ' ' ) ! ~ & $ @ @ {                             ",
"                      . . + . + * ] ] ] ] ] ^ ^ , , ' ' ) ! ! / @ @ @                           ",
"                  . . + ( _ : < < [ ~ } } } ] ] ^ ^ , , ' ) ! | @ 1 1 @ {                       ",
"                . . 2 _ _ 3 3 : < < 4 | ~ } } } ] ] ^ , , ' ) > @ 5 6 7 @ -                     ",
"              . . 8 9 0 3 a a b : < < c > ~ ~ } } } ] ^ , ' ' > @ 5 d e f @ #                   ",
"            . . g 9 3 a a b h h h i . < = j | ~ ~ } } ] ^ , ' k @ 5 l d e m @ -                 ",
"          . . n 9 0 a b b h o o o p q r < s t | ~ ~ } } ] ^ , k @ 5 l d e u f @ v               ",
"        . . w x _ y b b h o p p z z z A r < + / | ~ ~ } ] ^ , B @ 5 l d e e u C D E             ",
"        . r 9 _ 3 a b h o p z F F F G G H r . + / | ~ ~ } ] ^ B @ 5 I l d e u u J D             ",
"      . . K 9 0 y b h L p z F G M M M M : r . . . * | ~ } ] ^ B @ 5 I l d e u N O # v           ",
"      . 2 x _ 0 y b h L z z G M M P P Q < . . . . . R ~ } } ] S @ 5 I l d e u N N T D           ",
"    @ . U x _ V W h L p z G M P H H 8 < . . . . . . . ; ~ } ] S @ 5 I 6 d e u N N X # v         ",
"    . 2 Y 9 _ y b h L Z z G M H H ` < . . . . . . . . . [ ~ ] S @ 5 I 6 d e u N N N T #         ",
"    + (  .9 0 y W h L Z G M P ..w . . . . . . . . . . . + % } B @ 5 I 6 d e u N N +.@.# #.      ",
"  @ + $. .9 _ V W %.L Z G M ..2 . . . . . . . . . . . . + @ % t @ 5 I 6 d e u N N +.N # &.      ",
"  @ *.=. .9 _ V W %.L Z G ..2 . . . . . . . . . . . . + + @ @ @ @ 5 I 6 -.e u N +.+.+.T -       ",
"  @ ;.=. .x >.V W %.L Z ..,.. . . . . . . . . . . . + + @ @ @ @ @ 5 I 6 -.u u N +.+.'.).#       ",
"  @ !.=.Y x >.V W %.U ..r . . . . . . + @ @ @ @ @ @ @ @ @ @ @ @ @ 5 I -.-.u N N +.'.'.@.#       ",
"  @ ~.=.Y  .>.0 V W ..+ + @ @ @ @ @ @ @ @ D D D D D # # # # # # D 7 6 -.e u N +.+.'.'.O # {.    ",
"  @ ].=.=. .$.>.V ..@ @ @ @ @ @ @ @ @ @ @ @ D D D D D # # # # # # C ^././.N N +.'.'.'.(.# _.    ",
"  @ :.<.=.Y  .$.( D D [.}.@ @ @ @ @ @ @ D D D D D D # # # # # # # C ^.|.1.2.2.3.3.'.'.(.- _.    ",
"  @ ].<.4.4.5.!.D D 6.7.[.@ @ @ @ @ @ @ @ D D D D D D # # # # # # C /.|.1.2.8.9.0.9.8.a.# {.    ",
"  @ b.c.d.e.!.D D f.g.h.[.@ @ @ @ @ @ @ @ @ D D D D D # # # # # # C /.1.1.i.8.9.0.j.j.k.-       ",
"  # l.c.d.m.D D n.o.p.g.q.@ @ @ @ @ @ D D D D D D D # # # # # # # C |.1.2.8.9.9.0.j.j.r.s.      ",
"  # t.u.v.D D w.x.y.y.p.q.@ @ @ @ @ @ @ D D D D D D D # # # # # # C |.1.i.8.9.0.j.j.j.z.s.      ",
"  # # v.D # A.B.C.x.x.y.q.@ @ @ @ @ @ @ @ @ D D D D D # # # # # # C 1.2.i.9.9.0.j.j.j.{ v       ",
"  - D # D.E.F.G.B.C.x.x.6.@ @ @ @ @ @ @ @ @ @ D D D D D # # # # # C 1.i.8.9.0.0.j.j.H.- #.      ",
"    # D.I.J.K.F.F.G.C.C.L.D @ @ @ D D D D D D D D D # # # # # # # - M.M.M.M.M.z.z.z.N.-         ",
"    # # O.P.P.J.F.F.G.B.L.@ @ @ @ @ @ D D D D D D D D # # # # # # # # # - - - - - - - v         ",
"      # Q.R.P.P.J.K.F.F.S.D T.U.U.U.U.U.U.U.U.U.V.V.V.W.W.W.X.X.X.Y.Y.Z.Z.`.`.`.`. +- {.        ",
"      # D.O.R.R.P.O.J.K.S.D .+++++@+@+@+@+@+@+#+#+$+%+%+&+*+*+=+-+-+;+;+>+>+,+,+'+{ {           ",
"        # )+!+!+R.R.P.O.~+D .+#+#+#+#+#+#+#+$+$+%+%+&+&+*+*+{+-+-+;+;+>+>+>+,+>+ +- ]+          ",
"        - # ^+!+!+!+R.R.~+# /+%+$+$+$+$+%+%+%+(+&+&+_+*+=+{+-+-+-+;+;+>+>+>+>+Z.- &.            ",
"          # # :+<+<+!+!+[+# /+&+(+(+&+&+&+&+&+_+_+*+=+=+{+-+-+-+;+;+>+>+>+>+}+{ |+              ",
"            # - 1+<+<+<+[+# 2+_+_+_+_+_+_+_+_+=+=+{+{+-+-+-+-+;+;+;+>+>+>+3+4+{                 ",
"            E # s.:+5+5+6+# 2+=+=+=+=+=+=+=+{+{+{+{+-+-+-+-+;+;+;+>+>+>+7+4+- 8+                ",
"              E # - 9+5+6+# 0+{+{+{+{+{+{+{+{+{+-+-+-+-+-+;+;+;+;+>+;+Y.{ s.]+                  ",
"                  - # a+a+# 0+{+{+{+-+-+-+-+-+-+-+-+-+;+;+;+;+;+;+b+c+- {                       ",
"                    { # - - 0+{+-+-+-+-+-+-+-+-+-+;+;+;+;+;+;+b+d+{ - v                         ",
"                      #.- - s.e+f+{+-+-+-+-+-+-+-+;+;+;+-+g+e+4+- |+]+                          ",
"                          h+- - - i+j+k+l+m+g+g+m+l+n+o+p+- - { _.                              ",
"                                q+{ - - - - - - - - - - |+h+                                    ",
"                                        {.#.q+q+#.{.                                            ",
"                                                                                                ",
"                                                                                                "};
